<?xml version="1.0" encoding="UTF-8" standalone="no"?>
<!DOCTYPE svg PUBLIC "-//W3C//DTD SVG 1.1//EN" "http://www.w3.org/Graphics/SVG/1.1/DTD/svg11.dtd">

<!-- Created with Vectornator (http://vectornator.io/) -->
<svg height="100%" stroke-miterlimit="10" style="fill-rule:nonzero;clip-rule:evenodd;stroke-linecap:round;stroke-linejoin:round;" version="1.1" viewBox="0 0 2560 1440" width="100%" xml:space="preserve" xmlns="http://www.w3.org/2000/svg" xmlns:vectornator="http://vectornator.io" xmlns:xlink="http://www.w3.org/1999/xlink">
<metadata>
<vectornator:setting key="IsTimeLapseWatermarkDisabled" value="false"/>
<vectornator:setting key="UndoHistoryDisabled" value="true"/>
<vectornator:setting key="VNDimensionsVisible" value="true"/>
<vectornator:setting key="VNSnapToGuides" value="true"/>
<vectornator:setting key="WDCMYKEnabledKey" value="false"/>
<vectornator:setting key="WDDisplayWhiteBackground" value="false"/>
<vectornator:setting key="WDDynamicGuides" value="false"/>
<vectornator:setting key="WDGuidesVisible" value="false"/>
<vectornator:setting key="WDIsolateActiveLayer" value="false"/>
<vectornator:setting key="WDOutlineMode" value="false"/>
<vectornator:setting key="WDRulersVisible" value="true"/>
<vectornator:setting key="WDSnapToEdges" value="false"/>
<vectornator:setting key="WDSnapToGrid" value="true"/>
<vectornator:setting key="WDSnapToPoints" value="false"/>
<vectornator:setting key="WDUnits" value="Pixels"/>
</metadata>
<defs>
<linearGradient gradientTransform="matrix(1 0 0 0.978261 0 0)" gradientUnits="userSpaceOnUse" id="LinearGradient" x1="0" x2="2560" y1="736" y2="736">
<stop offset="0" stop-color="#53c6f5"/>
<stop offset="1" stop-color="#567fea"/>
<stop offset="1" stop-color="#ff4646"/>
</linearGradient>
<linearGradient gradientTransform="matrix(1 0 0 1 0 0)" gradientUnits="userSpaceOnUse" id="LinearGradient_2" x1="1312" x2="1312" y1="2000" y2="2000">
<stop offset="0" stop-color="#e54343"/>
<stop offset="1" stop-color="#ff4646"/>
</linearGradient>
<linearGradient gradientTransform="matrix(1 0 0 1 0 0)" gradientUnits="userSpaceOnUse" id="LinearGradient_3" x1="512" x2="512" y1="1168" y2="1168">
<stop offset="0" stop-color="#e54343"/>
<stop offset="1" stop-color="#ff4646"/>
</linearGradient>
</defs>
<g id="Layer-1" vectornator:layerName="Layer 1">
<path d="M0 0L2560 0L2560 1440L0 1440L0 0Z" fill="url(#LinearGradient)" fill-rule="evenodd" opacity="1" stroke="none"/>
<path d="M1312 1984L1312 1984L1312 2016L1312 2016L1312 1984Z" fill="url(#LinearGradient_2)" fill-rule="evenodd" opacity="1" stroke="none"/>
<path d="M512 1152L512 1152L512 1184L512 1184L512 1152Z" fill="url(#LinearGradient_3)" fill-rule="evenodd" opacity="1" stroke="none"/>
</g>
<g id="Layer-2" vectornator:layerName="Layer 2">
<path d="M0 736C0 736 102.415 879.996 166.512 939.944C250.814 1018.79 353.399 1075.75 442.16 1149.54C554.046 1242.56 659.387 1343.18 768 1440C384 1440 384 1440 0 1440C0 1088 0 736 0 736Z" fill="#3a3041" fill-rule="evenodd" opacity="1" stroke="none"/>
<path d="M0 736C128 704 288 992 288 992C288 992 653.404 1261.4 704 1312C768 1376 1216 1440 1216 1440L640 1440C640 1440 315.221 1106.69 160 960" fill="#18e543" fill-rule="evenodd" opacity="1" stroke="none"/>
<path d="M1504 0C1504 0 1687.08-0.528483 1632 96C1598.36 154.96 1952 160 1920 224C1815.82 432.369 2240 352 2240 480C2240 694.663 2560 640 2560 640L2560 0" fill="#ffffff" fill-rule="evenodd" opacity="1" stroke="none"/>
<path d="M0 128C0 58.9303 0 0 0 0C0 0 41.3579 0 96 0C172.477 0 224 0 312.418 0.81778C337.38 36.9448 352 80.765 352 128C352 251.712 251.712 352 128 352C79.2729 352 36.7625 346.42 0 320C0 224 0 202.985 0 128Z" fill="#e3e500" fill-rule="evenodd" opacity="1" stroke="none"/>
</g>
</svg>
