<?xml version="1.0" encoding="UTF-8" standalone="no"?>
<!DOCTYPE svg PUBLIC "-//W3C//DTD SVG 1.1//EN" "http://www.w3.org/Graphics/SVG/1.1/DTD/svg11.dtd">

<!-- Created with Vectornator (http://vectornator.io/) -->
<svg height="100%" stroke-miterlimit="10" style="fill-rule:nonzero;clip-rule:evenodd;stroke-linecap:round;stroke-linejoin:round;" version="1.1" viewBox="0 0 721 966" width="100%" xml:space="preserve" xmlns="http://www.w3.org/2000/svg" xmlns:vectornator="http://vectornator.io" xmlns:xlink="http://www.w3.org/1999/xlink">
<metadata>
<vectornator:setting key="IsTimeLapseWatermarkDisabled" value="false"/>
<vectornator:setting key="UndoHistoryDisabled" value="true"/>
<vectornator:setting key="VNDimensionsVisible" value="true"/>
<vectornator:setting key="VNSnapToGuides" value="true"/>
<vectornator:setting key="WDCMYKEnabledKey" value="false"/>
<vectornator:setting key="WDDisplayWhiteBackground" value="false"/>
<vectornator:setting key="WDDynamicGuides" value="true"/>
<vectornator:setting key="WDGuidesVisible" value="true"/>
<vectornator:setting key="WDIsolateActiveLayer" value="false"/>
<vectornator:setting key="WDOutlineMode" value="false"/>
<vectornator:setting key="WDRulersVisible" value="true"/>
<vectornator:setting key="WDSnapToEdges" value="false"/>
<vectornator:setting key="WDSnapToGrid" value="false"/>
<vectornator:setting key="WDSnapToPoints" value="false"/>
<vectornator:setting key="WDUnits" value="Pixels"/>
</metadata>
<defs>
<linearGradient gradientTransform="matrix(1 0 0 1 -1839.19 -0.279699)" gradientUnits="userSpaceOnUse" id="LinearGradient" x1="1860" x2="2560" y1="600" y2="846.088">
<stop offset="0" stop-color="#dedede"/>
<stop offset="1" stop-color="#909090"/>
</linearGradient>
<linearGradient gradientTransform="matrix(1 0 0 1 -1839.19 -0.279699)" gradientUnits="userSpaceOnUse" id="LinearGradient_2" x1="2120" x2="2559.83" y1="60" y2="765.362">
<stop offset="0" stop-color="#fffefb"/>
<stop offset="1" stop-color="#c0bfbb"/>
</linearGradient>
</defs>
<g id="Layer-1" vectornator:layerName="Layer 1">
<path d="M14.19-0.279699C14.19-0.279699-21.773 151.357 20.8055 239.72C48.6806 297.57 180.805 339.72 180.805 339.72C180.805 339.72 160.805 439.72 200.805 499.72C240.805 559.72 349.414 585.862 349.414 585.862C349.414 585.862 352.423 690.85 387.221 719.481C431.509 755.92 540.805 739.72 540.805 739.72C540.805 739.72 535.805 823.325 580.805 879.72C625.805 936.115 720.805 965.3 720.805 965.3L720.008-0.279699" fill="url(#LinearGradient)" fill-rule="evenodd" opacity="1" stroke="none"/>
<path d="M720.805-0.279699C720.805-0.279699 251.935-0.279699 91.1578-0.279699C1.03583 155.847 240.805 259.72 240.805 259.72C240.805 259.72 204.052 421.916 259.052 471.916C314.052 521.916 420.805 539.72 420.805 539.72C420.805 539.72 400.805 644.72 440.805 679.72C480.805 714.72 580.805 659.72 580.805 659.72C580.805 659.72 580.814 778.252 620.805 839.72C660.797 901.189 720.773 925.595 720.773 925.595" fill="url(#LinearGradient_2)" fill-rule="evenodd" opacity="1" stroke="none"/>
</g>
</svg>
