<?xml version="1.0" encoding="UTF-8" standalone="no"?>
<!DOCTYPE svg PUBLIC "-//W3C//DTD SVG 1.1//EN" "http://www.w3.org/Graphics/SVG/1.1/DTD/svg11.dtd">

<!-- Created with Vectornator (http://vectornator.io/) -->
<svg height="100%" stroke-miterlimit="10" style="fill-rule:nonzero;clip-rule:evenodd;stroke-linecap:round;stroke-linejoin:round;" version="1.1" viewBox="0 0 1024 1024" width="100%" xml:space="preserve" xmlns="http://www.w3.org/2000/svg" xmlns:vectornator="http://vectornator.io" xmlns:xlink="http://www.w3.org/1999/xlink">
    <metadata>
        <vectornator:setting key="IsTimeLapseWatermarkDisabled" value="false" />
        <vectornator:setting key="UndoHistoryDisabled" value="true" />
        <vectornator:setting key="VNDimensionsVisible" value="true" />
        <vectornator:setting key="VNSnapToGuides" value="true" />
        <vectornator:setting key="WDCMYKEnabledKey" value="false" />
        <vectornator:setting key="WDDisplayWhiteBackground" value="false" />
        <vectornator:setting key="WDDynamicGuides" value="false" />
        <vectornator:setting key="WDGuidesVisible" value="false" />
        <vectornator:setting key="WDIsolateActiveLayer" value="false" />
        <vectornator:setting key="WDOutlineMode" value="false" />
        <vectornator:setting key="WDRulersVisible" value="true" />
        <vectornator:setting key="WDSnapToEdges" value="false" />
        <vectornator:setting key="WDSnapToGrid" value="true" />
        <vectornator:setting key="WDSnapToPoints" value="false" />
        <vectornator:setting key="WDUnits" value="Pixels" />
    </metadata>
    <defs />
    <g id="Layer-1" vectornator:layerName="Layer 1">
        <path d="M129 159C129 159 385 159 513 159C641 159 665.446 351 737 351C801 351 833 351 833 351" fill="none" fill-rule="evenodd" opacity="1" stroke="#ffffff" stroke-linecap="round" stroke-linejoin="round" stroke-width="60" />
        <path d="M129 351C129 351 353 351 513 351C641 351 665.446 159 737 159C801 159 833 159 833 159" fill="none" fill-rule="evenodd" opacity="1" stroke="#ffffff" stroke-linecap="round" stroke-linejoin="round" stroke-width="60" />
        <path d="M833 95L833 223L929 159L833 95Z" fill="#ffffff" fill-rule="evenodd" opacity="1" stroke="#ffffff" stroke-linecap="round" stroke-linejoin="round" stroke-width="30" />
        <path d="M129 543L306.434 543L545 543" fill="none" fill-rule="evenodd" opacity="1" stroke="#ffffff" stroke-linecap="round" stroke-linejoin="round" stroke-width="60" />
        <path d="M833 287L833 415L929 351L833 287Z" fill="#ffffff" fill-rule="evenodd" opacity="1" stroke="#ffffff" stroke-linecap="round" stroke-linejoin="round" stroke-width="30" />
        <path d="M129 735L481 735" fill="none" fill-rule="evenodd" opacity="1" stroke="#ffffff" stroke-linecap="round" stroke-linejoin="round" stroke-width="60" />
        <path d="M673 895C689 823 737 479 737 479C737 479 801 543 865 575C968.197 626.598 865 703 865 703" fill="none" fill-rule="evenodd" opacity="1" stroke="#ffffff" stroke-linecap="round" stroke-linejoin="round" stroke-width="60" />
        <path d="M513 879C513 852.49 548.817 831 593 831C637.183 831 673 852.49 673 879C673 905.51 637.183 927 593 927C548.817 927 513 905.51 513 879Z" fill="#ffffff" fill-rule="evenodd" opacity="1" stroke="#ffffff" stroke-linecap="round" stroke-linejoin="round" stroke-width="69.7159" />
    </g>
</svg>