<?xml version="1.0" encoding="UTF-8" standalone="no"?>
<!DOCTYPE svg PUBLIC "-//W3C//DTD SVG 1.1//EN" "http://www.w3.org/Graphics/SVG/1.1/DTD/svg11.dtd">

<!-- Created with Vectornator (http://vectornator.io/) -->
<svg height="100%" stroke-miterlimit="10" style="fill-rule:nonzero;clip-rule:evenodd;stroke-linecap:round;stroke-linejoin:round;" version="1.1" viewBox="0 0 1294 720" width="100%" xml:space="preserve" xmlns="http://www.w3.org/2000/svg" xmlns:vectornator="http://vectornator.io" xmlns:xlink="http://www.w3.org/1999/xlink">
<metadata>
<vectornator:setting key="IsTimeLapseWatermarkDisabled" value="false"/>
<vectornator:setting key="UndoHistoryDisabled" value="true"/>
<vectornator:setting key="VNDimensionsVisible" value="true"/>
<vectornator:setting key="VNSnapToGuides" value="true"/>
<vectornator:setting key="WDCMYKEnabledKey" value="false"/>
<vectornator:setting key="WDDisplayWhiteBackground" value="false"/>
<vectornator:setting key="WDDynamicGuides" value="true"/>
<vectornator:setting key="WDGuidesVisible" value="true"/>
<vectornator:setting key="WDIsolateActiveLayer" value="false"/>
<vectornator:setting key="WDOutlineMode" value="false"/>
<vectornator:setting key="WDRulersVisible" value="true"/>
<vectornator:setting key="WDSnapToEdges" value="false"/>
<vectornator:setting key="WDSnapToGrid" value="false"/>
<vectornator:setting key="WDSnapToPoints" value="false"/>
<vectornator:setting key="WDUnits" value="Pixels"/>
</metadata>
<defs>
<linearGradient gradientTransform="matrix(1 0 0 1 0 -699.985)" gradientUnits="userSpaceOnUse" id="LinearGradient" x1="20" x2="640" y1="1060" y2="880">
<stop offset="0" stop-color="#281d0c"/>
<stop offset="1" stop-color="#1c1305"/>
</linearGradient>
<linearGradient gradientTransform="matrix(1 0 0 1 0 -699.985)" gradientUnits="userSpaceOnUse" id="LinearGradient_2" x1="0" x2="290.577" y1="1289.93" y2="1134.11">
<stop offset="0" stop-color="#35240b"/>
<stop offset="1" stop-color="#34240c"/>
</linearGradient>
<linearGradient gradientTransform="matrix(1 0 0 1 0 -699.985)" gradientUnits="userSpaceOnUse" id="LinearGradient_3" x1="140" x2="416.161" y1="1000" y2="1154.03">
<stop offset="0" stop-color="#20dd67"/>
<stop offset="1" stop-color="#0b931c"/>
</linearGradient>
<linearGradient gradientTransform="matrix(1 0 0 1 0 0)" gradientUnits="userSpaceOnUse" id="LinearGradient_4" x1="0" x2="1293.88" y1="544.815" y2="544.815">
<stop offset="0" stop-color="#4d340e"/>
<stop offset="1" stop-color="#352309"/>
</linearGradient>
<linearGradient gradientTransform="matrix(0.998971 -0.0453499 0.0453499 0.998971 -34.8954 -678.818)" gradientUnits="userSpaceOnUse" id="LinearGradient_5" x1="420" x2="614.608" y1="780" y2="861.398">
<stop offset="0" stop-color="#20dd67"/>
<stop offset="1" stop-color="#0b931c"/>
</linearGradient>
<linearGradient gradientTransform="matrix(1 0 0 1 0 -699.985)" gradientUnits="userSpaceOnUse" id="LinearGradient_6" x1="437.143" x2="999.016" y1="1065.53" y2="1210.51">
<stop offset="0" stop-color="#20dd67"/>
<stop offset="1" stop-color="#0b931c"/>
</linearGradient>
</defs>
<g id="Layer-1" vectornator:layerName="Layer 1">
<path d="M0 302.954C380 200.015 314.324-62.8233 480 20.0149C640 100.015 720 420.015 720 420.015L0 500.66" fill="url(#LinearGradient)" fill-rule="evenodd" opacity="1" stroke="none"/>
<path d="M0 495.116C0 495.116 135 378.79 260 360.015C385 341.24 760 500.015 760 500.015L0 672.921L0 495.116Z" fill="url(#LinearGradient_2)" fill-rule="evenodd" opacity="1" stroke="none"/>
<path d="M101.399 423.327C95.5516 403.46 180.094 372.701 256.61 360.547C333.126 348.394 401.615 354.845 407.463 374.712C413.31 394.579 408.654 404.564 332.138 416.718C319.318 418.754 288.785 441.392 253.785 441.392C218.785 441.392 194.667 424.491 162.164 419.332C129.661 414.172 104.839 435.013 101.399 423.327Z" fill="url(#LinearGradient_3)" fill-rule="evenodd" opacity="1" stroke="none"/>
<path d="M0 589.948C17.0981 615.538-20 680.015 116.455 629.862C317.61 555.931 216.995 335.145 622.728 350.364C880 360.015 1293.88 740.015 1293.88 740.015L0 740.015" fill="url(#LinearGradient_4)" fill-rule="evenodd" opacity="1" stroke="none"/>
<path d="M436.397 0.507861C342.599-8.1771 295.628 96.991 282.003 127.64C268.379 158.29 340.514 120.929 381.901 123.105C423.287 125.282 423.447 156.255 463.632 159.436C503.818 162.617 506.854 122.7 541.736 115.849C576.618 108.999 619.822 187.722 622.561 132.201C624.485 93.197 530.194 9.19282 436.397 0.507861Z" fill="url(#LinearGradient_5)" fill-rule="evenodd" opacity="1" stroke="none"/>
<path d="M246.366 521.993C234.441 506.535 300.512 434.65 368.461 392.215C436.41 349.78 520 340.015 520 340.015C520 340.015 606.623 323.875 680 340.015C753.377 356.155 745.266 363.335 820 400.015C894.734 436.695 1019.95 495.255 995.995 508.524C972.043 521.792 878.025 507.893 800 500.015C721.975 492.137 725.32 453.482 655.32 458.482C585.32 463.482 579.79 521.124 520 520.015C460.21 518.906 484.569 453.552 416.161 454.047C347.752 454.541 258.291 537.451 246.366 521.993Z" fill="url(#LinearGradient_6)" fill-rule="evenodd" opacity="1" stroke="none"/>
</g>
</svg>
